<svg width="24" height="24" viewBox="0 0 24 24" fill="none" xmlns="http://www.w3.org/2000/svg">
<path d="M17.105 6.23235C16.9416 5.96227 16.6183 5.83391 16.3143 5.91869C16.0104 6.00347 15.8 6.2805 15.8 6.59599C15.8 7.45421 15.1018 8.15221 14.2438 8.15221C13.3857 8.15221 12.6875 7.45421 12.6875 6.59599V0.703119C12.6875 0.418757 12.5162 0.162409 12.2534 0.0536449C11.9907 -0.0553027 11.6883 0.0047558 11.4873 0.205988C11.4082 0.284907 9.53338 2.17089 7.63384 5.02019C6.51361 6.70036 5.61969 8.36699 4.97699 9.97374C4.1629 12.0093 3.75 13.9579 3.75 15.7657C3.75 20.306 7.44396 24 11.9844 24C16.5247 24 20.2187 20.306 20.2187 15.7657C20.2188 12.8593 19.1711 9.65184 17.105 6.23235Z" fill="#FF9F00"/>
<path d="M17.1049 6.23235C16.9416 5.96227 16.6182 5.83391 16.3143 5.91869C16.0103 6.00347 15.7999 6.28051 15.7999 6.596C15.7999 7.45421 15.1017 8.15221 14.2437 8.15221C13.3857 8.15221 12.6875 7.45421 12.6875 6.596V0.703124C12.6875 0.418762 12.5161 0.162414 12.2534 0.0536498C12.1664 0.017395 12.075 0.000366211 11.9844 0.000366211V24C16.5248 24 20.2188 20.306 20.2188 15.7655C20.2188 12.8593 19.1711 9.65184 17.1049 6.23235Z" fill="#FF641A"/>
<path d="M15.9731 11.8672H12.9605C12.5721 11.8672 12.2574 12.182 12.2574 12.5704C12.2572 12.9587 12.5721 13.2735 12.9603 13.2735H14.2756L11.2715 16.2775L9.63861 14.6446C9.36413 14.3699 8.919 14.3699 8.64435 14.6446L7.04657 16.242C6.77191 16.5166 6.77191 16.9618 7.04657 17.2364C7.32104 17.5111 7.76617 17.5111 8.04083 17.2364L9.14148 16.1361L10.7744 17.7691C10.9062 17.9009 11.0851 17.9749 11.2715 17.9749C11.4579 17.9749 11.6368 17.9009 11.7687 17.7691L15.2698 14.2679V15.5828C15.2698 15.9712 15.5846 16.2859 15.9729 16.2859C16.3613 16.2859 16.6761 15.9712 16.6761 15.5828V12.5704C16.6761 12.1822 16.3613 11.8672 15.9731 11.8672Z" fill="#E7F0EF"/>
<path d="M15.9731 11.8672H12.9605C12.5721 11.8672 12.2574 12.182 12.2574 12.5704C12.2572 12.9587 12.5721 13.2735 12.9603 13.2735H14.2756L11.9844 15.5647V17.5534L15.27 14.2679V15.5828C15.27 15.9712 15.5848 16.2859 15.9731 16.2859C16.3613 16.2859 16.6763 15.9712 16.6763 15.5828V12.5704C16.6761 12.1822 16.3613 11.8672 15.9731 11.8672Z" fill="#C5E1E6"/>
</svg>
